# xmcd
#
# Track frame offsets:
#	150
#	21875
#	45140
#	68022
#	88455
#	110262
#	129370
#	146090
#	166455
#	184110
#	204757
#	222330
#	238302
#
# Disc length: 3355 seconds
#
# Revision: 1
# Processed by: cddbd v1.5.2PL0 Copyright (c) Steve Scherf et al.
# Submitted via: EasyCDDAExtractor 11.5.3.1
#
DISCID=b50d190d
DTITLE=Jonny Lang - Wander This World
DYEAR=1998
DGENRE=Blues
TTITLE0=Still Rainin`
TTITLE1=Second Guessing
TTITLE2=I Am
TTITLE3=Breakin` Me
TTITLE4=Wander This World
TTITLE5=Walking Away
TTITLE6=The Levee
TTITLE7=Angel Of Mercy
TTITLE8=Right Back
TTITLE9=Leaving To Stay
TTITLE10=Before You Hit The Ground
TTITLE11=Cherry Red Wine
TTITLE12=If This Is Love
EXTD=ID3G: 0
EXTT0=
EXTT1=
EXTT2=
EXTT3=
EXTT4=
EXTT5=
EXTT6=
EXTT7=
EXTT8=
EXTT9=
EXTT10=
EXTT11=
EXTT12=
PLAYORDER=
